<?xml version="1.0" standalone="no"?>
<!DOCTYPE svg PUBLIC "-//W3C//DTD SVG 20010904//EN"
 "http://www.w3.org/TR/2001/REC-SVG-20010904/DTD/svg10.dtd">
<svg version="1.0" xmlns="http://www.w3.org/2000/svg"
 width="700.000000pt" height="700.000000pt" viewBox="0 0 700.000000 700.000000"
 preserveAspectRatio="xMidYMid meet">
<metadata>
Created by potrace 1.11, written by Peter Selinger 2001-2013
</metadata>
<g transform="translate(0.000000,700.000000) scale(0.100000,-0.100000)"
fill="#000000" stroke="none">
<path d="M1968 6608 c-13 -24 -201 -349 -418 -723 -216 -374 -401 -695 -411
-712 -11 -18 -27 -48 -38 -65 -10 -18 -51 -89 -90 -157 -39 -68 -70 -125 -69
-126 2 -2 172 -101 378 -220 206 -119 480 -278 608 -352 128 -74 245 -141 260
-149 15 -8 43 -24 62 -36 86 -50 617 -356 637 -367 20 -10 30 -6 85 39 76 61
217 131 313 156 80 20 254 27 336 13 348 -57 619 -330 684 -689 10 -53 7 -218
-4 -275 -5 -27 -7 -53 -3 -57 6 -5 261 -155 327 -192 17 -10 320 -184 380
-219 11 -6 36 -21 55 -33 66 -40 152 -86 154 -82 3 4 42 71 72 123 12 22 92
161 178 309 86 148 156 273 156 278 0 4 5 8 10 8 6 0 10 5 10 11 0 6 28 59 63
118 48 80 284 488 407 701 5 8 38 66 74 127 35 62 67 121 70 131 7 20 41 -1
-644 394 -195 113 -416 240 -490 283 -154 89 -142 82 -355 204 -88 51 -167 96
-175 101 -109 64 -440 255 -645 373 -143 83 -372 216 -510 295 -137 80 -275
159 -305 175 -30 17 -66 38 -80 47 -14 10 -35 21 -47 24 -13 4 -23 12 -23 17
0 5 -4 9 -8 9 -5 0 -119 64 -253 141 -272 158 -293 170 -346 200 -21 12 -78
45 -128 74 -49 29 -108 63 -130 75 -22 12 -59 33 -81 46 l-42 25 -24 -43z
m1800 -1409 c94 -35 97 -35 112 1 14 34 18 34 80 -5 l41 -26 -22 -31 -22 -31
29 -20 c55 -39 140 -132 164 -182 21 -42 25 -65 25 -142 0 -50 -3 -95 -7 -99
-4 -4 -70 17 -146 47 l-139 53 1 56 c0 34 -6 65 -15 78 -17 23 -13 28 -107
-136 l-25 -44 50 -51 c144 -150 192 -249 179 -365 -14 -119 -88 -219 -204
-275 -108 -51 -230 -48 -358 8 l-50 22 -30 -54 c-41 -77 -45 -79 -96 -47 -24
15 -44 28 -46 29 -2 1 14 31 34 65 l37 63 -29 25 c-115 96 -164 162 -190 250
-20 67 -20 138 1 207 l15 54 74 -34 c41 -18 108 -48 148 -65 l75 -31 -12 -47
c-7 -26 -11 -56 -9 -67 21 -117 30 -115 108 21 37 63 66 119 64 123 -2 5 -30
39 -63 76 -33 37 -72 85 -88 108 -85 126 -58 301 64 411 93 85 222 105 357 55z"/>
<path d="M3670 4979 c-27 -10 -49 -38 -56 -73 -4 -21 23 -96 36 -96 7 0 100
161 100 173 0 10 -50 7 -80 -4z"/>
<path d="M3583 4448 c-26 -32 -121 -207 -115 -212 3 -3 29 -6 57 -6 60 0 99
24 120 73 15 36 7 70 -28 121 -18 28 -27 33 -34 24z"/>
<path d="M1365 4195 c-5 -2 -44 -11 -85 -20 -159 -36 -297 -128 -413 -277 -32
-41 -96 -181 -113 -248 -25 -98 -23 -255 5 -355 91 -327 383 -543 717 -531
235 8 444 124 572 316 85 127 120 245 120 400 1 392 -305 705 -698 715 -52 1
-99 1 -105 0z"/>
<path d="M3320 3677 c-110 -33 -176 -73 -261 -157 -246 -245 -243 -626 8 -867
77 -75 200 -141 295 -159 276 -51 548 83 668 331 21 44 42 94 45 110 31 156
26 254 -22 375 -68 170 -195 293 -371 357 -98 37 -258 41 -362 10z"/>
<path d="M5792 2813 c-39 -66 -70 -119 -347 -600 -70 -123 -132 -223 -136
-223 -9 0 -14 3 -199 110 -69 40 -143 83 -165 95 -22 13 -80 46 -130 75 -49
29 -110 64 -135 78 -25 14 -74 42 -109 64 -34 21 -64 38 -66 38 -2 0 -41 22
-87 49 -159 93 -173 102 -206 118 l-33 17 -27 -34 c-111 -144 -242 -239 -403
-293 -94 -31 -130 -37 -241 -42 -94 -4 -234 20 -318 52 -162 64 -329 202 -407
337 -27 46 -80 163 -87 189 -3 15 -12 27 -19 27 -6 0 -79 -18 -162 -40 -82
-23 -184 -50 -225 -60 -134 -36 -339 -91 -650 -175 -168 -45 -411 -111 -541
-145 -221 -59 -236 -64 -231 -84 2 -12 20 -79 39 -151 19 -71 37 -137 38 -145
2 -8 27 -100 55 -205 28 -104 63 -233 77 -285 13 -52 58 -219 99 -370 40 -151
83 -311 95 -355 12 -44 29 -109 39 -145 10 -36 35 -128 55 -205 21 -77 40
-143 44 -147 3 -3 112 22 241 58 129 35 244 66 255 68 11 2 72 18 135 36 63
17 122 33 130 35 8 1 134 35 280 75 146 40 272 73 280 75 8 2 110 29 225 60
462 124 655 176 675 180 17 4 331 89 480 130 52 14 102 28 110 30 8 1 150 39
315 83 389 104 442 119 550 148 50 14 97 27 105 29 8 1 60 15 115 30 55 14
152 40 215 57 63 17 156 42 205 55 50 13 97 26 105 28 218 57 327 88 333 94 8
8 -41 196 -259 1006 -36 131 -66 241 -68 242 -2 2 -21 -27 -44 -64z m-3028
-462 c140 -39 261 -109 363 -213 173 -175 251 -375 240 -615 -7 -150 -22 -213
-84 -338 -90 -181 -247 -326 -438 -402 -241 -96 -538 -65 -757 81 -440 291
-500 912 -125 1279 133 130 309 215 482 232 39 4 71 8 72 9 9 8 184 -16 247
-33z"/>
<path d="M2518 2165 c-2 -2 -30 -6 -62 -10 -219 -25 -422 -198 -492 -419 -104
-331 86 -675 427 -771 104 -29 256 -23 354 15 205 78 348 241 391 445 78 367
-182 710 -558 738 -32 2 -59 3 -60 2z"/>
</g>
</svg>
